<svg id="Layer_1" data-name="Layer 1" xmlns="http://www.w3.org/2000/svg" viewBox="0 0 24 24"><title>icon-person</title><path d="M11.94,5.73H12a1.77,1.77,0,0,0,0-3.54h-.1a1.77,1.77,0,0,0,0,3.54Z" /><path d="M17.38,12.46,14.07,7.17A.8.8,0,0,0,14,7h0a.21.21,0,0,0,0-.06h0a.65.65,0,0,0-.27-.17H10.33a.65.65,0,0,0-.27.17h0A.21.21,0,0,0,10,7h0a.8.8,0,0,0-.08.16L6.62,12.46a.7.7,0,1,0,1.31.47l2.45-3.72-.27,4L7.8,20.82c-.11.47,0,.91.6,1a1.12,1.12,0,0,0,1.28-.7L12,14.52l2.32,6.59a1.12,1.12,0,0,0,1.28.7c.61-.08.71-.52.6-1l-2.31-7.59-.27-4,2.45,3.72a.7.7,0,1,0,1.31-.47Z" /></svg>