<svg id="Layer_1" data-name="Layer 1" xmlns="http://www.w3.org/2000/svg" viewBox="0 0 24 24"><title>icon-technology</title><path d="M16.61,10.36A4.61,4.61,0,0,0,12,6.06h0a4.61,4.61,0,0,0-4.61,4.3c0,2.17.71,2.84,1.83,4.39a7.25,7.25,0,0,1,1,3.7h3.58a7.31,7.31,0,0,1,1-3.7C15.9,13.2,16.65,12.53,16.61,10.36Z" /><rect x="18.92" y="10.67" width="3.08" height="1.23" /><rect x="2" y="10.67" width="3.08" height="1.23" /><rect x="11.38" y="1.28" width="1.23" height="3.08" /><rect x="5.4" y="3.76" width="1.23" height="3.08" transform="translate(-1.99 5.81) rotate(-45)" /><rect x="16.44" y="4.69" width="3.08" height="1.23" transform="translate(1.52 14.27) rotate(-45)" /><path d="M10.21,21.23a.52.52,0,0,0,.52.53h.34v.06h0a.9.9,0,0,0,.89.9H12a.9.9,0,0,0,.89-.9h0v-.06h.34a.52.52,0,0,0,.52-.53V20.3H10.21Z" /></svg>