<svg id="Layer_1" data-name="Layer 1" xmlns="http://www.w3.org/2000/svg" viewBox="0 0 24 24">
 <g id="moments">
  <title>icon-moments</title>
  <path d="M18.73,5.21h-.45V3.56a.77.77,0,1,0-1.53,0V5.21H12.6V3.56a.77.77,0,0,0-.76-.77.78.78,0,0,0-.77.77V5.21H7.25V3.56a.77.77,0,1,0-1.53,0V5.21H5.27A2.27,2.27,0,0,0,3,7.48V18.94a2.27,2.27,0,0,0,2.27,2.27H18.73A2.27,2.27,0,0,0,21,18.94V7.48A2.27,2.27,0,0,0,18.73,5.21ZM9,18.14H6.46v-2.5H9Zm0-3.68H6.46V12H9Zm0-3.68H6.46V8.28H9Zm4.29,7.36h-2.5v-2.5h2.5Zm0-3.68h-2.5V12h2.5Zm0-3.68h-2.5V8.28h2.5Zm4.29,7.36H15v-2.5h2.5Zm0-3.68H15V12h2.5Zm0-3.68H15V8.28h2.5Z"/>
 </g>
</svg>