<svg id="Layer_1" data-name="Layer 1" xmlns="http://www.w3.org/2000/svg" viewBox="0 0 24 24"><title>icon-connection</title><path d="M19.33,4.74l-.07-.07a4,4,0,0,0-5.68,0L10,8.29A4,4,0,0,0,10,14L10,14a4.59,4.59,0,0,0,.41.36l1.33-1.33a2.24,2.24,0,0,1-.43-.33l-.07-.07a2.17,2.17,0,0,1,0-3.07L14.88,6A2.2,2.2,0,0,1,18,6L18,6a2.2,2.2,0,0,1,0,3.08l-1.64,1.64a5.54,5.54,0,0,1,.4,2.2l2.54-2.54A4,4,0,0,0,19.33,4.74ZM14,10a4.59,4.59,0,0,0-.41-.36l-1.33,1.33a2.24,2.24,0,0,1,.43.33l.07.07a2.17,2.17,0,0,1,0,3.07L9.12,18A2.2,2.2,0,0,1,6,18L6,18a2.2,2.2,0,0,1,0-3.08l1.64-1.64a5.54,5.54,0,0,1-.4-2.2L4.67,13.58a4,4,0,0,0,0,5.68l.07.07a4,4,0,0,0,5.68,0L14,15.71A4,4,0,0,0,14,10Z" /></svg>