<svg id="Layer_1" data-name="Layer 1" xmlns="http://www.w3.org/2000/svg" viewBox="0 0 24 24"><title>icon-settings</title><g id="Layer_2" data-name="Layer 2"><g id="JudgementofParis"><g id="Interface"><path d="M24,13.37V10.63L20.32,10a8.59,8.59,0,0,0-1-2.4l2.14-3.08-1.94-2L16.44,4.68a8.59,8.59,0,0,0-2.4-1L13.37,0H10.63L10,3.68a8.59,8.59,0,0,0-2.4,1L4.48,2.54,2.54,4.48,4.68,7.56a8.59,8.59,0,0,0-1,2.4L0,10.63v2.74L3.68,14a8.59,8.59,0,0,0,1,2.4L2.54,19.52l1.94,1.94,3.08-2.14a8.59,8.59,0,0,0,2.4,1L10.63,24h2.74L14,20.32a8.59,8.59,0,0,0,2.4-1l3.08,2.14,1.94-1.94-2.14-3.08a8.59,8.59,0,0,0,1-2.4ZM12,17.14A5.14,5.14,0,1,1,17.14,12h0A5.14,5.14,0,0,1,12,17.14Z" /></g></g></g></svg>