<svg xmlns="http://www.w3.org/2000/svg" viewBox="0 0 1700 250"><title>Header-ConnectedIcons3</title><g id="Layer_1" data-name="Layer 1"><g id="Line_61" data-name="Line 61"><line x1="468.2" y1="173.65" x2="467.26" y2="173.31" style="fill:none;stroke:#d4dadc;stroke-width:2px"/><line x1="464.48" y1="172.29" x2="308.31" y2="115.19" style="fill:none;stroke:#d4dadc;stroke-width:2px;stroke-dasharray:1.9736135005950928,2.9604201316833496"/><line x1="306.92" y1="114.69" x2="305.98" y2="114.34" style="fill:none;stroke:#d4dadc;stroke-width:2px"/></g><g id="Path_173" data-name="Path 173"><line x1="1394.02" x2="1394.36" y2="0.94" style="fill:none;stroke:#d4dadc;stroke-width:2px"/><line x1="1395.38" y1="3.75" x2="1432.02" y2="105.33" style="fill:none;stroke:#d4dadc;stroke-width:2px;stroke-dasharray:1.9906483888626099,2.9859726428985596"/><line x1="1432.53" y1="106.74" x2="1432.87" y2="107.68" style="fill:none;stroke:#d4dadc;stroke-width:2px"/></g><g id="Line_63" data-name="Line 63"><line x1="1248.96" y1="250" x2="1249.84" y2="249.52" style="fill:none;stroke:#d4dadc;stroke-width:2px"/><line x1="1252.48" y1="248.06" x2="1343.61" y2="197.79" style="fill:none;stroke:#d4dadc;stroke-width:2px;stroke-dasharray:2.0110738277435303,3.016610860824585"/><line x1="1344.93" y1="197.07" x2="1345.8" y2="196.58" style="fill:none;stroke:#d4dadc;stroke-width:2px"/></g><g id="Line_64" data-name="Line 64"><line x1="1321.39" y1="80.46" x2="1321.38" y2="79.46" style="fill:none;stroke:#d4dadc;stroke-width:2px"/><line x1="1321.36" y1="76.44" x2="1320.89" y2="2.51" style="fill:none;stroke:#d4dadc;stroke-width:2px;stroke-dasharray:2.011838436126709,3.0177576541900635"/><line x1="1320.88" y1="1" x2="1320.87" style="fill:none;stroke:#d4dadc;stroke-width:2px"/></g><g id="Line_65" data-name="Line 65"><line x1="474.34" y1="69.01" x2="475.24" y2="68.57" style="fill:none;stroke:#d4dadc;stroke-width:2px"/><line x1="477.9" y1="67.28" x2="614.03" y2="1.08" style="fill:none;stroke:#d4dadc;stroke-width:2px;stroke-dasharray:1.9722716808319092,2.958407402038574"/><line x1="615.36" y1="0.44" x2="616.26" style="fill:none;stroke:#d4dadc;stroke-width:2px"/></g><g id="Line_66" data-name="Line 66"><line x1="332.05" y1="249.83" x2="331.76" y2="248.88" style="fill:none;stroke:#d4dadc;stroke-width:2px"/><line x1="330.9" y1="245.99" x2="295.33" y2="127.33" style="fill:none;stroke:#d4dadc;stroke-width:2px;stroke-dasharray:2.0061960220336914,3.009294033050537"/><line x1="294.9" y1="125.88" x2="294.61" y2="124.93" style="fill:none;stroke:#d4dadc;stroke-width:2px"/></g><g id="Line_73" data-name="Line 73"><line x1="129.68" y1="137.14" x2="130.26" y2="136.33" style="fill:none;stroke:#d4dadc;stroke-width:2px"/><line x1="132.06" y1="133.83" x2="158.11" y2="97.58" style="fill:none;stroke:#d4dadc;stroke-width:2px;stroke-dasharray:2.052386999130249,3.078580379486084"/><line x1="159.01" y1="96.33" x2="159.59" y2="95.52" style="fill:none;stroke:#d4dadc;stroke-width:2px"/></g><g id="Line_74" data-name="Line 74"><line x1="260.06" y1="249.83" x2="259.24" y2="249.26" style="fill:none;stroke:#d4dadc;stroke-width:2px"/><line x1="256.79" y1="247.52" x2="135.28" y2="161.5" style="fill:none;stroke:#d4dadc;stroke-width:2px;stroke-dasharray:2.005014657974243,3.007521867752075"/><line x1="134.05" y1="160.63" x2="133.23" y2="160.06" style="fill:none;stroke:#d4dadc;stroke-width:2px"/></g><g id="Line_75" data-name="Line 75"><line x1="120.2" x2="120.2" y2="1" style="fill:none;stroke:#d4dadc;stroke-width:2px"/><line x1="120.2" y1="3.98" x2="120.2" y2="131.78" style="fill:none;stroke:#d4dadc;stroke-width:2px;stroke-dasharray:1.9890111684799194,2.9835166931152344"/><line x1="120.2" y1="133.27" x2="120.2" y2="134.27" style="fill:none;stroke:#d4dadc;stroke-width:2px"/></g><g id="Path_176" data-name="Path 176"><line x1="1519.34" x2="1518.8" y2="0.84" style="fill:none;stroke:#d4dadc;stroke-width:2px"/><line x1="1517.18" y1="3.39" x2="1450.21" y2="108.38" style="fill:none;stroke:#d4dadc;stroke-width:2px;stroke-dasharray:2.0165936946868896,3.024890422821045"/><line x1="1449.4" y1="109.66" x2="1448.86" y2="110.5" style="fill:none;stroke:#d4dadc;stroke-width:2px"/></g><g id="Path_177" data-name="Path 177"><line x1="1563.77" y1="250" x2="1564.01" y2="249.03" style="fill:none;stroke:#d4dadc;stroke-width:2px"/><line x1="1564.76" y1="246.04" x2="1578.17" y2="192.73" style="fill:none;stroke:#d4dadc;stroke-width:2px;stroke-dasharray:2.0550856590270996,3.0826282501220703"/><line x1="1578.54" y1="191.23" x2="1578.79" y2="190.26" style="fill:none;stroke:#d4dadc;stroke-width:2px"/></g><g id="Path_174" data-name="Path 174"><line x1="1522.34" y1="98.77" x2="1521.4" y2="99.11" style="fill:none;stroke:#d4dadc;stroke-width:2px"/><line x1="1518.57" y1="100.15" x2="1458.65" y2="122.19" style="fill:none;stroke:#d4dadc;stroke-width:2px;stroke-dasharray:2.01088547706604,3.0163280963897705"/><line x1="1457.23" y1="122.71" x2="1456.3" y2="123.06" style="fill:none;stroke:#d4dadc;stroke-width:2px"/></g><g id="Line_72" data-name="Line 72"><line x1="38.06" y1="249.83" x2="38.69" y2="249.06" style="fill:none;stroke:#d4dadc;stroke-width:2px"/><line x1="40.62" y1="246.71" x2="106.94" y2="165.55" style="fill:none;stroke:#d4dadc;stroke-width:2px;stroke-dasharray:2.0252978801727295,3.0379467010498047"/><line x1="107.9" y1="164.38" x2="108.53" y2="163.6" style="fill:none;stroke:#d4dadc;stroke-width:2px"/></g><g id="Path_175" data-name="Path 175"><line x1="1671.77" y1="250" x2="1671.01" y2="249.35" style="fill:none;stroke:#d4dadc;stroke-width:2px"/><line x1="1668.75" y1="247.42" x2="1598.28" y2="187.18" style="fill:none;stroke:#d4dadc;stroke-width:2px;stroke-dasharray:1.9830971956253052,2.9746458530426025"/><line x1="1597.15" y1="186.21" x2="1596.38" y2="185.56" style="fill:none;stroke:#d4dadc;stroke-width:2px"/></g><circle id="Ellipse_5-2" data-name="Ellipse 5-2" cx="1538.35" cy="93.46" r="15" style="fill:#1ea866"/><path d="M1543,87.4a6.68,6.68,0,0,0-9.43,0h0a6.68,6.68,0,0,0,0,9.43l4.71,4.71,4.72-4.71A6.68,6.68,0,0,0,1543,87.4Zm-4.72,7.48a3.19,3.19,0,1,1,3.19-3.18A3.18,3.18,0,0,1,1538.28,94.88Z" style="fill:#fff"/><rect x="1528.35" y="83.46" width="20" height="20" style="fill:none"/><g id="Path_177-2" data-name="Path 177"><line x1="1439.29" y1="250" x2="1439.29" y2="249" style="fill:none;stroke:#d4dadc;stroke-width:2px"/><line x1="1439.29" y1="245.95" x2="1439.3" y2="145.84" style="fill:none;stroke:#d4dadc;stroke-width:2px;stroke-dasharray:2.032621145248413,3.04893159866333"/><line x1="1439.3" y1="144.32" x2="1439.3" y2="143.32" style="fill:none;stroke:#d4dadc;stroke-width:2px"/></g></g><g id="Layer_2" data-name="Layer 2"><circle id="Ellipse_5-2-2" data-name="Ellipse 5-2" cx="1439.3" cy="125.5" r="15" style="fill:#ea534b"/><path d="M1439.25,120h.08a1.55,1.55,0,0,0,0-3.1h-.08a1.55,1.55,0,0,0,0,3.1Z" style="fill:#fff"/><path d="M1444,125.91l-2.89-4.64a.57.57,0,0,0-.08-.13h0l0,0h0a.45.45,0,0,0-.24-.14v0h-2.93v0a.49.49,0,0,0-.24.14h0l0,0h0a.57.57,0,0,0-.08.13l-2.89,4.64a.61.61,0,0,0,1.14.41l2.14-3.26-.23,3.51-2,6.65c-.09.4,0,.79.52.86a1,1,0,0,0,1.13-.61l2-5.76,2,5.76a1,1,0,0,0,1.13.61c.53-.07.62-.46.53-.86l-2-6.65-.23-3.51,2.14,3.26a.61.61,0,0,0,1.14-.41Z" style="fill:#fff"/><rect x="1428.8" y="115" width="21" height="21" style="fill:none"/><circle id="Ellipse_5-2-3" data-name="Ellipse 5-2" cx="1321.39" cy="80.46" r="15" style="fill:#f2ac30"/><path d="M1325.23,79.18a3.85,3.85,0,0,0-3.84-3.59h0a3.85,3.85,0,0,0-3.84,3.59c0,1.81.58,2.37,1.52,3.66a6.08,6.08,0,0,1,.83,3.08h3a6,6,0,0,1,.82-3.08C1324.64,81.55,1325.27,81,1325.23,79.18Z" style="fill:#fff"/><rect x="1327.15" y="79.43" width="2.57" height="1.03" style="fill:#fff"/><rect x="1313.05" y="79.43" width="2.57" height="1.03" style="fill:#fff"/><rect x="1320.87" y="71.61" width="1.03" height="2.57" style="fill:#fff"/><rect x="1315.89" y="73.68" width="1.03" height="2.57" transform="translate(332.56 952.79) rotate(-45)" style="fill:#fff"/><rect x="1325.09" y="74.45" width="2.57" height="1.03" transform="translate(335.48 959.84) rotate(-45)" style="fill:#fff"/><path d="M1319.89,88.24a.44.44,0,0,0,.44.44h.28v0h0a.74.74,0,0,0,.75.74h.06a.75.75,0,0,0,.75-.74h0a.43.43,0,0,0,0,0h.28a.44.44,0,0,0,.44-.44v-.78h-3Z" style="fill:#fff"/><rect x="1311.39" y="70.46" width="20" height="20" style="fill:none"/><circle id="Ellipse_5-2-4" data-name="Ellipse 5-2" cx="1584.4" cy="174.33" r="15" style="fill:#ed77a5"/><path d="M1590,168.67h-.37v-1.38a.64.64,0,0,0-1.28,0v1.38h-3.45v-1.38a.64.64,0,1,0-1.28,0v1.38h-3.19v-1.38a.64.64,0,0,0-.63-.64.64.64,0,0,0-.64.64v1.38h-.38a1.89,1.89,0,0,0-1.89,1.89v9.55a1.89,1.89,0,0,0,1.89,1.89H1590a1.89,1.89,0,0,0,1.89-1.89v-9.55A1.89,1.89,0,0,0,1590,168.67Zm-8.14,10.77h-2.08v-2.08h2.08Zm0-3.06h-2.08V174.3h2.08Zm0-3.07h-2.08v-2.08h2.08Zm3.57,6.13h-2.08v-2.08h2.08Zm0-3.06h-2.08V174.3h2.08Zm0-3.07h-2.08v-2.08h2.08Zm3.58,6.13h-2.08v-2.08H1589Zm0-3.06h-2.08V174.3H1589Zm0-3.07h-2.08v-2.08H1589Z" style="fill:#fff"/><rect x="1574.4" y="164.33" width="20" height="20" style="fill:none"/><circle id="Ellipse_5-2-5" data-name="Ellipse 5-2" cx="1360.28" cy="188.81" r="15" style="fill:#ba5b93"/><rect x="1352.48" y="188.81" width="6.56" height="6.56" style="fill:#fff"/><polygon points="1364.34 186.56 1356.23 186.56 1360.28 179.89 1364.34 186.56" style="fill:#fff"/><circle cx="1365.09" cy="192.09" r="3.72" style="fill:#fff"/><rect x="1349.78" y="178.31" width="21" height="21" style="fill:none"/><circle id="Ellipse_5-2-6" data-name="Ellipse 5-2" cx="459.34" cy="78.11" r="15" style="fill:#ea534b"/><path d="M459.29,72.62h.08a1.55,1.55,0,0,0,0-3.09h-.08a1.55,1.55,0,0,0,0,3.09Z" style="fill:#fff"/><path d="M464.05,78.52l-2.9-4.63a.37.37,0,0,0-.07-.14h0l0,0h0a.39.39,0,0,0-.23-.15h-2.92a.39.39,0,0,0-.23.15h0l0,0h0a.61.61,0,0,0-.07.14l-2.89,4.63a.61.61,0,1,0,1.14.41l2.14-3.26-.23,3.52-2,6.64c-.09.41,0,.79.53.86a1,1,0,0,0,1.12-.61l2-5.76,2,5.76a1,1,0,0,0,1.12.61c.53-.07.62-.45.53-.86l-2-6.64-.23-3.52,2.14,3.26a.61.61,0,0,0,1.15-.41Z" style="fill:#fff"/><rect x="448.84" y="67.61" width="21" height="21" style="fill:none"/><circle id="Ellipse_5-2-7" data-name="Ellipse 5-2" cx="119.68" cy="150.5" r="15" style="fill:#f2ac30"/><path d="M123.52,149.21a3.84,3.84,0,0,0-3.84-3.58h0a3.83,3.83,0,0,0-3.83,3.58c0,1.82.58,2.38,1.52,3.66a6.12,6.12,0,0,1,.83,3.09h3a6.07,6.07,0,0,1,.82-3.09C122.93,151.59,123.55,151,123.52,149.21Z" style="fill:#fff"/><rect x="125.44" y="149.47" width="2.57" height="1.03" style="fill:#fff"/><rect x="111.34" y="149.47" width="2.57" height="1.03" style="fill:#fff"/><rect x="119.16" y="141.65" width="1.03" height="2.57" style="fill:#fff"/><rect x="114.18" y="143.72" width="1.03" height="2.57" transform="translate(-68.94 123.57) rotate(-45)" style="fill:#fff"/><rect x="123.38" y="144.49" width="2.57" height="1.03" transform="translate(-66.02 130.62) rotate(-45)" style="fill:#fff"/><path d="M118.18,158.28a.44.44,0,0,0,.44.44h.28v.05h0a.74.74,0,0,0,.74.74h.07a.74.74,0,0,0,.74-.74h0v-.05h.28a.44.44,0,0,0,.44-.44v-.78h-3Z" style="fill:#fff"/><rect x="109.68" y="140.5" width="20" height="20" style="fill:none"/><circle id="Ellipse_5-2-8" data-name="Ellipse 5-2" cx="485.34" cy="178.6" r="15" style="fill:#1ea866"/><path d="M490,172.54a6.66,6.66,0,0,0-9.42,0h0a6.66,6.66,0,0,0,0,9.43l4.71,4.71L490,182A6.66,6.66,0,0,0,490,172.54ZM485.28,180a3.19,3.19,0,1,1,3.19-3.18A3.18,3.18,0,0,1,485.28,180Z" style="fill:#fff"/><rect x="475.34" y="168.6" width="20" height="20" style="fill:none"/><circle id="Ellipse_5-2-9" data-name="Ellipse 5-2" cx="290.83" cy="108.44" r="15" style="fill:#ed77a5"/><path d="M296.44,102.78h-.37v-1.37a.64.64,0,1,0-1.28,0v1.37h-3.45v-1.37a.64.64,0,1,0-1.28,0v1.37h-3.18v-1.37a.64.64,0,1,0-1.28,0v1.37h-.38a1.9,1.9,0,0,0-1.89,1.89v9.56a1.89,1.89,0,0,0,1.89,1.89h11.22a1.89,1.89,0,0,0,1.89-1.89v-9.56A1.9,1.9,0,0,0,296.44,102.78Zm-8.14,10.78h-2.08v-2.09h2.08Zm0-3.07h-2.08v-2.08h2.08Zm0-3.06h-2.08v-2.08h2.08Zm3.58,6.13h-2.09v-2.09h2.09Zm0-3.07h-2.09v-2.08h2.09Zm0-3.06h-2.09v-2.08h2.09Zm3.57,6.13h-2.08v-2.09h2.08Zm0-3.07h-2.08v-2.08h2.08Zm0-3.06h-2.08v-2.08h2.08Z" style="fill:#fff"/><rect x="280.83" y="98.44" width="20" height="20" style="fill:none"/><circle id="Ellipse_5-2-10" data-name="Ellipse 5-2" cx="167.54" cy="81.6" r="15" style="fill:#ba5b93"/><rect x="168.78" y="81.6" width="6.56" height="6.56" transform="translate(344.13 169.76) rotate(-180)" style="fill:#fff"/><polygon points="163.49 79.35 171.59 79.35 167.54 72.68 163.49 79.35" style="fill:#fff"/><circle cx="162.73" cy="84.88" r="3.72" style="fill:#fff"/><rect x="157.04" y="71.1" width="21" height="21" transform="translate(335.08 163.2) rotate(-180)" style="fill:none"/></g></svg>