<?xml version="1.0" encoding="utf-8"?>
<!-- Generator: Adobe Illustrator 24.0.3, SVG Export Plug-In . SVG Version: 6.00 Build 0)  -->
<svg version="1.1" id="cmyk" xmlns="http://www.w3.org/2000/svg" xmlns:xlink="http://www.w3.org/1999/xlink" x="0px" y="0px"
	 viewBox="0 0 275.3 432" style="enable-background:new 0 0 275.3 432;" xml:space="preserve">
<style type="text/css">
	.st0{fill:#FFFFFF;}
</style>
<title>ucd_lib-logo-nowords</title>
<path class="st0" d="M102.4,337.8l45.6-12.4c13.7-3.7,24-17.4,24-31.9V121.2l-69.6-11V337.8z"/>
<path class="st0" d="M171.9,87.9V0L24.9,31.2C10.7,34.2,0,47.8,0,63v302.7l69.5-18.9V71.8L171.9,87.9z"/>
<path class="st0" d="M250.6,100.2l-78.6-12.3v33.3l71.5,11.2v261.2l-141-22.2v-33.6l-32.8,8.9v25.5c0,15.3,11.3,29.1,25.7,31.3
	l181,28.5V131.6C276.3,116.3,265,102.5,250.6,100.2z"/>
</svg>
